<?xml version="1.0" encoding="utf-8"?>
<!-- Generator: Adobe Illustrator 19.2.1, SVG Export Plug-In . SVG Version: 6.00 Build 0)  -->
<svg version="1.1" id="Layer_1" xmlns="http://www.w3.org/2000/svg" xmlns:xlink="http://www.w3.org/1999/xlink" x="0px" y="0px"
	 viewBox="0 0 118.1 73.3" style="enable-background:new 0 0 118.1 73.3;" xml:space="preserve">
<style type="text/css">
	.st0{fill:#FE5F55;}
	.st1{fill:none;stroke:#FE5F55;stroke-width:1.2774;stroke-miterlimit:10;}
</style>
<g>
	<g>
		<path class="st0" d="M93.1,23.1c-2.3,0-4.6,0.3-6.8,1L86,24.2l-7.3-17h9.9c2.3,0,4.1,1.8,4.1,4.1c0,0.7-0.5,1.4-1.2,1.6l-2.7,0.8
			l1.3,4.3l2.7-0.8c2.6-0.8,4.4-3.1,4.4-5.9c0-4.7-3.9-8.6-8.6-8.6H71.9l5,11.6H42.4l-3.2-5.4h4.1V4.5H27.8v4.5h6.2l4.3,7.2
			l-4.5,8.5l-0.3-0.1c-2.6-0.9-5.3-1.4-8-1.4c-13.1,0-23.8,10.7-23.8,23.8s10.7,23.8,23.8,23.8c11.7,0,21.8-8.8,23.5-20.4l0-0.3h2.7
			l0.1,0.2c1.3,3.2,4.3,5.2,7.7,5.2c4.6,0,8.3-3.7,8.3-8.3c0-1.6-0.5-3.1-1.3-4.5l-0.1-0.2l12.6-23.5l3,7l-0.2,0.1
			C74,30.3,69.3,38.2,69.3,46.9C69.3,60,80,70.6,93.1,70.6s23.8-10.7,23.8-23.8S106.2,23.1,93.1,23.1z M44.4,50.3
			c-1.7,9.2-9.6,15.8-19,15.8c-10.6,0-19.3-8.7-19.3-19.3c0-10.6,8.7-19.3,19.3-19.3c2,0,3.9,0.3,5.7,0.9l0.4,0.1l-6.5,12.1l-0.2,0
			c-3.3,0.3-5.8,3-5.8,6.3c0,1,0.3,2.1,0.8,3.1l0,0c1.1,2,3.3,3.3,5.6,3.3c2.3,0,4.4-1.3,5.6-3.3l0.1-0.2h13.4L44.4,50.3z M27.4,47
			c0,1.1-0.9,1.9-1.9,1.9s-1.9-0.9-1.9-1.9c0-1.1,0.9-1.9,1.9-1.9S27.4,46,27.4,47z M31.6,45.5l-0.1-0.2c-0.3-1.2-1-2.2-1.9-3
			l-0.2-0.2l6.2-11.6l0.3,0.2c5,3.3,8.2,8.5,8.8,14.5l0,0.3L31.6,45.5L31.6,45.5z M53.2,41.5c-0.9,1.1-1.6,2.3-1.9,3.7l-0.1,0.2
			h-2.1l0-0.3c-0.5-7.6-4.7-14.5-11.2-18.5l-0.2-0.2l3.2-6l12.5,20.8L53.2,41.5z M59.4,50.9c-2.1,0-3.8-1.7-3.8-3.8
			c0-2.1,1.7-3.8,3.8-3.8s3.8,1.7,3.8,3.8C63.3,49.2,61.5,50.9,59.4,50.9z M62.8,39.5l-0.3-0.1c-1.6-0.7-3.3-0.8-5.1-0.4L57.2,39
			L45.1,18.8h28.8L62.8,39.5z M93.1,66.1c-10.6,0-19.3-8.7-19.3-19.3c0-6.8,3.7-13.1,9.5-16.6l0.3-0.2l5.2,12.2l-0.2,0.2
			c-1.3,1.2-2,2.9-2,4.6c0,3.5,2.9,6.4,6.4,6.4s6.4-2.9,6.4-6.4c0-3.4-2.8-6.3-6.2-6.4l-0.2,0l-5.3-12.3l0.4-0.1
			c1.7-0.4,3.3-0.7,5-0.7c10.6,0,19.3,8.7,19.3,19.3C112.4,57.5,103.7,66.1,93.1,66.1z M91.2,47c0-1.1,0.9-1.9,1.9-1.9
			c1.1,0,1.9,0.9,1.9,1.9c0,1.1-0.9,1.9-1.9,1.9S91.2,48.1,91.2,47z"/>
	</g>
</g>
<g>
	<circle class="st1" cx="-556.5" cy="240.1" r="115.4"/>
	<path class="st0" d="M-463.5,171.7c14.1,19.1,22.4,42.8,22.4,68.4c0,63.7-51.7,115.4-115.4,115.4s-115.4-51.7-115.4-115.4
		c0-23.9,7.3-46.1,19.7-64.5"/>
</g>
<g>
	<circle class="st1" cx="-214.3" cy="240.1" r="115.4"/>
	<path class="st0" d="M-115.3,299.3c-20.2,33.6-57,56.1-99.1,56.1c-42.1,0-78.9-22.5-99.1-56.1"/>
</g>
<g>
	<circle class="st1" cx="126.5" cy="240.7" r="115.4"/>
	<path class="st0" d="M236,204.1c3.8,11.5,5.9,23.8,5.9,36.6c0,63.7-51.7,115.4-115.4,115.4S11.1,304.5,11.1,240.7
		c0-12,1.8-23.5,5.2-34.3"/>
</g>
</svg>
