<?xml version="1.0" encoding="utf-8"?>
<!-- Generator: Adobe Illustrator 19.2.1, SVG Export Plug-In . SVG Version: 6.00 Build 0)  -->
<svg version="1.1" id="Layer_1" xmlns="http://www.w3.org/2000/svg" xmlns:xlink="http://www.w3.org/1999/xlink" x="0px" y="0px"
	 viewBox="0 0 126 128" style="enable-background:new 0 0 126 128;" xml:space="preserve">
<style type="text/css">
	.st0{fill:#EEF5DB;}
	.st1{fill:#FE5F55;}
	.st2{fill:none;stroke:#FE5F55;stroke-width:1.2774;stroke-miterlimit:10;}
</style>
<g id="prof.psd_1_">
	
		<image style="overflow:visible;" width="511" height="351" id="Layer_0_2_" xlink:href="5A962AF79B996ECD.png"  transform="matrix(0.144 0 0 0.144 -1179.9788 775.7662)">
	</image>
</g>
<g>
	<g>
		<g>
			<g>
				<g>
					<path class="st0" d="M118.4,48.3V32.7V31c0-8.9-7.9-16.1-17.6-16.4l0,0v3.9l0,0v4v0v2.2c0,5.8-4.7,10.5-10.5,10.5
						c-5.8,0-10.5-4.7-10.5-10.5v-2.3v-3.9v-3.9H50.2v3.9v3.9v2.3c0,5.8-4.7,10.5-10.5,10.5s-10.5-4.7-10.5-10.5v-2.2v0v-4l0,0v-3.9
						l0,0C19.7,15,12,22.2,12,31v1.7v15.5v54.7c0,10,8.1,18.1,18.1,18.1h70.2c10,0,18.1-8.1,18.1-18.1V48.3L118.4,48.3z
						 M110.6,102.9c0,5.6-4.6,10.2-10.2,10.2H30.1c-5.6,0-10.2-4.6-10.2-10.2V48.3h90.7V102.9z"/>
					<path class="st0" d="M35.2,11.6v3v3.9v3.9v2.3c0,2.5,2,4.6,4.6,4.6c2.5,0,4.6-2,4.6-4.6v-2.3v-3.9v-3.9v-3c0-2.5-2-4.6-4.6-4.6
						C37.2,7.1,35.2,9.1,35.2,11.6z"/>
					<path class="st0" d="M90.4,7.1c-2.5,0-4.6,2-4.6,4.6v3v3.9v3.9v2.3c0,2.5,2,4.6,4.6,4.6s4.6-2,4.6-4.6v-2.3v-3.9v-3.9v-3
						C94.9,9.1,92.9,7.1,90.4,7.1z"/>
					<path class="st0" d="M52,102.7c5.1,0,9-1.4,11.6-4.3s3.9-6.2,3.9-10c0-3.6-1.1-6.4-3.4-8.5c-0.6-0.6-1.2-1-1.7-1.3
						c-0.9-0.6-1-1-0.1-1.7c0.5-0.4,0.9-0.8,1.4-1.3c1.6-1.8,2.3-4,2.3-6.7c0-3.7-1.3-6.7-3.9-8.9c-2.6-2.2-6.1-3.3-10.4-3.3
						c-2.3,0-4.2,0.3-5.8,0.8c-1.6,0.6-3,1.4-4.1,2.4c-1.5,1.5-2.7,3.1-3.4,4.9c-0.5,1.4-0.8,2.8-1,4.4c-0.1,1.1,0.7,2,1.8,2h4.3
						c1.1,0,1.9-0.9,2.1-2c0.2-1.3,0.6-2.4,1.3-3.3c1-1.3,2.5-2,4.6-2c1.8,0,3.2,0.5,4.2,1.6c1,1.1,1.5,2.5,1.5,4.2
						c0,2.6-1,4.4-2.9,5.3c-0.8,0.4-2.2,0.6-4,0.8c-1.1,0.1-2,1-2,2V80c0,1.1,0.9,2,2,2c1.9,0.1,3.4,0.4,4.4,0.8
						c2.4,1,3.6,3,3.6,5.9c0,2.2-0.6,3.9-1.9,5.1c-1.3,1.2-2.8,1.8-4.5,1.8c-2.8,0-4.8-1.1-5.8-3.2c-0.3-0.7-0.6-1.5-0.7-2.5
						c-0.2-1.1-1-2-2.1-2h-4.7c-1.1,0-1.9,0.9-1.8,2c0.3,2.7,1,4.9,2,6.7C41.3,100.6,45.7,102.7,52,102.7z"/>
					<path class="st0" d="M76.5,70.7h6.6c1.1,0,2,0.9,2,2v26.9c0,1.1,0.9,2,2,2h5.1c1.1,0,2-0.9,2-2V58.8c0-1.1-0.9-2-2-2h-3.4
						c-1.1,0-2,0.4-2.1,0.9c-0.1,0.3-0.1,0.6-0.2,0.9c-0.4,1.3-1,2.4-1.7,3.2c-1.1,1.2-2.5,2-4.3,2.3c-0.8,0.2-2.1,0.3-3.9,0.5
						c-1.1,0.1-2,1-2,2.1v2C74.6,69.8,75.4,70.7,76.5,70.7z"/>
				</g>
			</g>
		</g>
	</g>
</g>
<g>
	<g>
		<g>
			<g>
				<g>
					<path class="st1" d="M1763,194.6c-0.1,0-0.2,0-0.3,0c-0.7-0.1-1.3-0.2-2-0.5c-4-1-8-2.8-12.2-4.7l-1.9-0.9
						c-4.8-2.2-9.8-4.4-15.3-5.7c-2.9-0.7-5.8-1.1-8.7-1.1c-2.3,0-4.7,0.2-6.8,0.6c-0.8,0.1-1.5-0.3-1.7-1c-0.2-0.7,0.1-1.5,0.8-1.9
						c5-2.4,10.1-4.9,15.1-7.4l3.8-1.9c-1.2-3-3.7-9.2-4.8-11.9l-22.3-2.7c-4.6-0.5-7.8-4.6-7.4-9.4c0.6-4.7,4.8-8,9.3-7.5l27.4,3.6
						c3.3,0.5,5.4,2.2,6.8,5.4c2.6,6.1,16.3,34.2,21.6,44.8c0.3,0.5,0.2,1.1-0.1,1.6C1764,194.4,1763.5,194.6,1763,194.6z
						 M1723.6,178.7c2.8,0.1,5.7,0.5,8.6,1.2c5.7,1.4,10.8,3.7,15.8,5.9l1.9,0.9c3.5,1.6,6.9,3.1,10.3,4.1
						c-6-12.2-17.8-36.3-20.2-42c-1.1-2.5-2.5-3.2-4.4-3.5l-27.3-3.6c-2.9-0.4-5.5,1.8-5.9,4.7c-0.2,3,1.8,5.7,4.7,6l0,0l23.2,3
						c0.6,0.1,1,0.4,1.2,1c0.8,2.1,4.9,12.2,5.7,14c0.3,0.8,0,1.6-0.7,2l-5.1,2.4C1728.8,176.1,1726.2,177.4,1723.6,178.7z"/>
				</g>
				<g>
					<path class="st1" d="M1694.9,202.5c-0.3,0-0.6-0.1-0.9-0.3c-0.7-0.5-0.9-1.5-0.4-2.2c1.9-2.7,4.5-5.3,7.6-7.5
						c2.7-2,6-3.7,9.4-4.7c4-1.3,7.9-1.9,12-1.9c3.1,0,6.1,0.4,8.7,1.1c5.3,1.4,10.1,3.5,14.8,5.6l1.2,0.5c4.5,2.1,8.9,4.1,13.4,5.3
						c4.3,1.1,9,1.3,13,0.4c4.4-0.9,8.2-3.1,10.6-5.9c0.2-0.3,0.4-0.5,0.6-0.8c0.1-0.2,0.3-0.4,0.4-0.6c0.4-0.7,1.4-1,2.1-0.5
						c0.7,0.4,1,1.4,0.5,2.1c-0.2,0.3-0.4,0.6-0.6,0.9c-0.1,0.2-0.3,0.4-0.4,0.6c0,0.1-0.1,0.1-0.1,0.2c-2.9,3.4-7.3,5.9-12.4,7
						c-4.5,0.9-9.6,0.8-14.4-0.4c-4.9-1.2-9.4-3.3-14-5.5l-1.2-0.5c-4.5-2-9.2-4.2-14.3-5.5c-2.3-0.6-5-1-7.9-1
						c-3.8,0-7.4,0.6-11.1,1.8c-3.1,1-6,2.5-8.5,4.3c-2.8,1.9-5.2,4.3-6.9,6.7C1695.9,202.3,1695.4,202.5,1694.9,202.5z"/>
				</g>
				<g>
					<path class="st1" d="M1773.2,184.3c-8.9,0-16.2-7.3-16.2-16.2c0-8.9,7.3-16.2,16.2-16.2s16.2,7.3,16.2,16.2
						C1789.4,177,1782.1,184.3,1773.2,184.3z M1773.2,155.1c-7.2,0-13.1,5.9-13.1,13.1s5.9,13.1,13.1,13.1c7.2,0,13.1-5.9,13.1-13.1
						S1780.4,155.1,1773.2,155.1z"/>
				</g>
			</g>
		</g>
		<ellipse class="st1" cx="1773.4" cy="168.3" rx="14.1" ry="13.7"/>
		<polygon class="st1" points="1705.9,140.5 1702.4,143.5 1700.8,146.6 1702.4,150.9 1705,153.6 1729.9,156.6 1735.1,169.8 
			1732,172.6 1720.4,178.9 1739,183.2 1760.8,192.2 1761.8,190.8 1741.6,150 1739.3,144.9 		"/>
	</g>
</g>
<g>
	<g>
		<path class="st1" d="M1777.5,434.8c-2.3,0-4.6,0.3-6.8,1l-0.3,0.1l-7.3-17h9.9c2.3,0,4.1,1.8,4.1,4.1c0,0.7-0.5,1.4-1.2,1.6
			l-2.7,0.8l1.3,4.3l2.7-0.8c2.6-0.8,4.4-3.1,4.4-5.9c0-4.7-3.9-8.6-8.6-8.6h-16.7l5,11.6h-34.5l-3.2-5.4h4.1v-4.5h-15.4v4.5h6.2
			l4.3,7.2l-4.5,8.5l-0.3-0.1c-2.6-0.9-5.3-1.4-8-1.4c-13.1,0-23.8,10.7-23.8,23.8c0,13.1,10.7,23.8,23.8,23.8
			c11.7,0,21.8-8.8,23.5-20.4l0-0.3h2.7l0.1,0.2c1.3,3.2,4.3,5.2,7.7,5.2c4.6,0,8.3-3.7,8.3-8.3c0-1.6-0.5-3.1-1.3-4.5l-0.1-0.2
			l12.6-23.5l3,7l-0.2,0.1c-7.6,4.2-12.3,12.2-12.3,20.8c0,13.1,10.7,23.8,23.8,23.8s23.8-10.7,23.8-23.8
			C1801.3,445.5,1790.6,434.8,1777.5,434.8z M1728.9,462.1c-1.7,9.2-9.6,15.8-19,15.8c-10.6,0-19.3-8.7-19.3-19.3
			c0-10.6,8.7-19.3,19.3-19.3c2,0,3.9,0.3,5.7,0.9l0.4,0.1l-6.5,12.1l-0.2,0c-3.3,0.3-5.8,3-5.8,6.3c0,1,0.3,2.1,0.8,3.1l0,0
			c1.1,2,3.3,3.3,5.6,3.3s4.4-1.3,5.6-3.3l0.1-0.2h13.4L1728.9,462.1z M1711.8,458.8c0,1.1-0.9,1.9-1.9,1.9c-1.1,0-1.9-0.9-1.9-1.9
			c0-1.1,0.9-1.9,1.9-1.9C1711,456.9,1711.8,457.7,1711.8,458.8z M1716.1,457.2l-0.1-0.2c-0.3-1.2-1-2.2-1.9-3l-0.2-0.2l6.2-11.6
			l0.3,0.2c5,3.3,8.2,8.5,8.8,14.5l0,0.3L1716.1,457.2L1716.1,457.2z M1737.7,453.3c-0.9,1.1-1.6,2.3-1.9,3.7l-0.1,0.2h-2.1l0-0.3
			c-0.5-7.6-4.7-14.5-11.2-18.5l-0.2-0.2l3.2-6l12.5,20.8L1737.7,453.3z M1743.9,462.6c-2.1,0-3.8-1.7-3.8-3.8
			c0-2.1,1.7-3.8,3.8-3.8s3.8,1.7,3.8,3.8C1747.7,460.9,1746,462.6,1743.9,462.6z M1747.3,451.2l-0.3-0.1c-1.6-0.7-3.3-0.8-5.1-0.4
			l-0.2,0.1l-12.2-20.3h28.8L1747.3,451.2z M1777.5,477.9c-10.6,0-19.3-8.7-19.3-19.3c0-6.8,3.7-13.1,9.5-16.6l0.3-0.2l5.2,12.2
			l-0.2,0.2c-1.3,1.2-2,2.9-2,4.6c0,3.5,2.9,6.4,6.4,6.4c3.5,0,6.4-2.9,6.4-6.4c0-3.4-2.8-6.3-6.2-6.4l-0.2,0l-5.3-12.3l0.4-0.1
			c1.7-0.4,3.3-0.7,5-0.7c10.6,0,19.3,8.7,19.3,19.3C1796.8,469.2,1788.2,477.9,1777.5,477.9z M1775.6,458.8c0-1.1,0.9-1.9,1.9-1.9
			c1.1,0,1.9,0.9,1.9,1.9c0,1.1-0.9,1.9-1.9,1.9C1776.5,460.7,1775.6,459.8,1775.6,458.8z"/>
	</g>
</g>
<g>
	<circle class="st2" cx="484.7" cy="353.7" r="115.4"/>
	<path class="st1" d="M577.7,285.4c14.1,19.1,22.4,42.8,22.4,68.4c0,63.7-51.7,115.4-115.4,115.4s-115.4-51.7-115.4-115.4
		c0-23.9,7.3-46.1,19.7-64.5"/>
</g>
<g>
	<circle class="st2" cx="826.8" cy="353.7" r="115.4"/>
	<path class="st1" d="M925.9,413c-20.2,33.6-57,56.1-99.1,56.1c-42.1,0-78.9-22.5-99.1-56.1"/>
</g>
<g>
	<circle class="st2" cx="1167.7" cy="354.4" r="115.4"/>
	<path class="st1" d="M1277.1,317.8c3.8,11.5,5.9,23.8,5.9,36.6c0,63.7-51.7,115.4-115.4,115.4s-115.4-51.7-115.4-115.4
		c0-12,1.8-23.5,5.2-34.3"/>
</g>
</svg>
