<?xml version="1.0" encoding="utf-8"?>
<!-- Generator: Adobe Illustrator 19.2.1, SVG Export Plug-In . SVG Version: 6.00 Build 0)  -->
<svg version="1.1" id="Layer_1" xmlns="http://www.w3.org/2000/svg" xmlns:xlink="http://www.w3.org/1999/xlink" x="0px" y="0px"
	 viewBox="0 0 240 234" style="enable-background:new 0 0 240 234;" xml:space="preserve">
<style type="text/css">
	.st0{fill:none;stroke:#FE5F55;stroke-width:1.2774;stroke-miterlimit:10;}
	.st1{fill:#FE5F55;}
</style>
<g>
	<circle class="st0" cx="-526.2" cy="400.7" r="115.4"/>
	<path class="st1" d="M-433.2,332.4c14.1,19.1,22.4,42.8,22.4,68.4c0,63.7-51.7,115.4-115.4,115.4s-115.4-51.7-115.4-115.4
		c0-23.9,7.3-46.1,19.7-64.5"/>
</g>
<g>
	<circle class="st0" cx="-184.1" cy="400.7" r="115.4"/>
	<path class="st1" d="M-85,460c-20.2,33.6-57,56.1-99.1,56.1c-42.1,0-78.9-22.5-99.1-56.1"/>
</g>
<g>
	<circle class="st0" cx="119.7" cy="116.5" r="115.4"/>
	<path class="st1" d="M229.2,79.9c3.8,11.5,5.9,23.8,5.9,36.6c0,63.7-51.7,115.4-115.4,115.4S4.2,180.3,4.2,116.5
		c0-12,1.8-23.5,5.2-34.3"/>
</g>
</svg>
