<?xml version="1.0" encoding="utf-8"?>
<!-- Generator: Adobe Illustrator 19.2.1, SVG Export Plug-In . SVG Version: 6.00 Build 0)  -->
<svg version="1.1" id="Layer_1" xmlns="http://www.w3.org/2000/svg" xmlns:xlink="http://www.w3.org/1999/xlink" x="0px" y="0px"
	 viewBox="0 0 342.6 142.6" style="enable-background:new 0 0 342.6 142.6;" xml:space="preserve">
<style type="text/css">
	.st0{opacity:0.7;fill:#FFFFFF;}
	.st1{fill:#B8D8D8;stroke:#FE5F55;stroke-width:0.3067;stroke-miterlimit:10;}
	.st2{fill:none;stroke:#4F6367;stroke-width:0.3067;stroke-miterlimit:10;}
	.st3{fill:none;}
	.st4{font-family:'OpenSans-Bold';}
	.st5{font-size:3.6806px;}
	.st6{letter-spacing:10;}
	.st7{letter-spacing:2;}
	.st8{letter-spacing:5;}
	.st9{letter-spacing:9;}
	.st10{letter-spacing:7;}
	.st11{letter-spacing:1;}
	.st12{font-size:4px;}
</style>
<rect x="18.6" y="18.8" class="st0" width="306.7" height="105.3"/>
<polygon class="st1" points="29.8,114.4 29.8,105.8 33.8,108.8 36,112.9 40.3,113.3 43,114.4 49.7,111 55.3,112.9 65.7,110.1 
	73,111.9 82.9,103.8 93.3,109 97.4,109 103.5,113.3 107.2,113.3 111.3,111.8 116.4,111.8 120.7,86.5 121.9,76.7 125.4,95.5 
	129.7,103.3 136.2,110.2 139.3,90.2 143.2,79.9 147.7,88.1 152,103.5 160.4,109.6 166.3,107.7 175.1,100.4 179.2,90.8 182,111.9 
	185.1,113.5 189.2,100.6 193.3,111.9 197.4,113.3 200.6,102.8 202.7,111 204.5,113.5 206.6,111.9 210.5,93.8 213.9,91.7 216.2,83.4 
	220.8,111.8 223.4,111.8 226.6,114.5 230.2,114.5 234.8,80.1 237.9,55.8 241.9,30.7 245.8,53 249.9,67.7 253.4,86.1 255.5,98.8 
	259.5,75.1 262.4,95.3 265.1,88.3 268.9,91.7 273,104.5 275.5,105.9 280.2,111.9 283.5,114.5 287.2,114.5 289.6,112.9 292.7,114.5 
	295.7,93.8 299,108.2 302.1,93.8 305.3,104.5 308.2,100.6 312.1,111.9 315.4,113.3 318.4,113.1 320.3,114.5 "/>
<rect x="29.8" y="23.3" class="st2" width="290.5" height="91.2"/>
<rect x="29.8" y="117.2" class="st3" width="296.9" height="7.4"/>
<text transform="matrix(1 0 0 1 29.7523 120.009)"><tspan x="0" y="0" class="st4 st5">12am</tspan><tspan x="10" y="0" class="st4 st5">	</tspan><tspan x="11" y="0" class="st4 st5 st6">	</tspan><tspan x="22.1" y="0" class="st4 st5">2am</tspan><tspan x="30" y="0" class="st4 st5 st7">	</tspan><tspan x="33.1" y="0" class="st4 st5 st6">	</tspan><tspan x="44.2" y="0" class="st4 st5">4am</tspan><tspan x="52.1" y="0" class="st4 st5 st7">	</tspan><tspan x="55.2" y="0" class="st4 st5 st6">	</tspan><tspan x="66.3" y="0" class="st4 st5">   6am</tspan><tspan x="77.1" y="0" class="st4 st5">	</tspan><tspan x="77.3" y="0" class="st4 st5 st6">	</tspan><tspan x="88.3" y="0" class="st4 st5">        8am</tspan><tspan x="103.9" y="0" class="st4 st5 st8">	</tspan><tspan x="110.4" y="0" class="st4 st5">           10am</tspan><tspan x="131" y="0" class="st4 st5">	</tspan><tspan x="132.5" y="0" class="st4 st5">             12pm</tspan><tspan x="155.1" y="0" class="st4 st5 st9">	</tspan><tspan x="165.6" y="0" class="st4 st5 st6">	</tspan><tspan x="176.7" y="0" class="st4 st5">2pm</tspan><tspan x="184.7" y="0" class="st4 st5 st7">	</tspan><tspan x="187.7" y="0" class="st4 st5 st6">	</tspan><tspan x="198.7" y="0" class="st4 st5">      4pm</tspan><tspan x="212.5" y="0" class="st4 st5 st10">	</tspan><tspan x="220.8" y="0" class="st4 st5">        6pm</tspan><tspan x="236.5" y="0" class="st4 st5 st8">	</tspan><tspan x="242.9" y="0" class="st4 st5">            8pm</tspan><tspan x="262.4" y="0" class="st4 st5 st11">	</tspan><tspan x="265" y="0" class="st4 st5 st6">	</tspan><tspan x="276" y="0" class="st4 st5">10pm</tspan><tspan x="286.2" y="0" class="st4 st5">	</tspan><tspan x="287.1" y="0" class="st4 st5 st6">	</tspan></text>
<rect x="21.4" y="21.6" class="st3" width="7.6" height="91.2"/>
<text transform="matrix(1 0 0 1 21.3717 24.6881)"><tspan x="0" y="0" class="st4 st12">800</tspan><tspan x="0" y="24" class="st4 st12">600</tspan><tspan x="0" y="52.8" class="st4 st12">400</tspan><tspan x="0" y="81.6" class="st4 st12">200</tspan></text>
</svg>
