<?xml version="1.0" encoding="utf-8"?>
<!-- Generator: Adobe Illustrator 19.2.1, SVG Export Plug-In . SVG Version: 6.00 Build 0)  -->
<svg version="1.1" id="Layer_1" xmlns="http://www.w3.org/2000/svg" xmlns:xlink="http://www.w3.org/1999/xlink" x="0px" y="0px"
	 viewBox="0 0 174 128" style="enable-background:new 0 0 174 128;" xml:space="preserve">
<style type="text/css">
	.st0{fill:#FE5F55;}
	.st1{fill:#EEF5DB;}
	.st2{fill:none;stroke:#FE5F55;stroke-width:1.2774;stroke-miterlimit:10;}
</style>
<g>
	<g>
		<g id="_x33_6_9_">
			<g>
				<path class="st0" d="M58.5,26.2h44.9c1.2,0,2.1-1,2.1-2.1c0-1.2-1-2.1-2.1-2.1H58.5c-1.2,0-2.1,1-2.1,2.1
					C56.3,25.3,57.3,26.2,58.5,26.2z"/>
				<path class="st0" d="M18.3,47.1h44.9c1.2,0,2.1-1,2.1-2.1s-1-2.1-2.1-2.1H18.3c-1.2,0-2.1,1-2.1,2.1S17.2,47.1,18.3,47.1z"/>
				<path class="st0" d="M30.4,69.1c0,1.2,1,2.1,2.1,2.1h44.9c1.2,0,2.1-1,2.1-2.1c0-1.2-1-2.1-2.1-2.1H32.5
					C31.3,66.9,30.4,67.9,30.4,69.1z"/>
				<path class="st0" d="M56.1,93.9H15.7c-1.2,0-2.1,1-2.1,2.1s1,2.1,2.1,2.1h40.3c1.2,0,2.1-1,2.1-2.1S57.2,93.9,56.1,93.9z"/>
				<path class="st0" d="M128.6,39.6c6.4,0,11.7-5.2,11.7-11.7s-5.2-11.7-11.7-11.7c-6.4,0-11.7,5.2-11.7,11.7
					C116.9,34.4,122.1,39.6,128.6,39.6z"/>
				<path class="st0" d="M147.8,36.3c-6.7,9.4-15.7,10.5-25.3,4.7c-0.7-0.4-3.6-2-4.2-2.4c-15.5-9.2-31-5.6-41.4,9
					c-4.4,6.2,5.8,12.1,10.2,5.9c5.4-7.5,12.2-9.7,19.7-7.3c-3.8,6.6-7.2,13.2-11.9,22.6c-4.7,9.4-15.1,16.9-25.1,11
					c-7.2-4.2-13.7,6.2-6.5,10.4c13.7,8,29.7,3.1,37.9-7.3c0.3,0.2,0.6,0.3,0.9,0.4c6.7,2.3,15.4,8.5,18.1,10.7
					c2.7,2.2,7.3,13.4,10,19c3.3,6.8,14,1.9,10.7-5c-3.1-6.4-8.3-19.1-12.3-22.3c-3.2-2.6-9.5-7.4-14.9-10.1
					c3.6-7,7.4-13.9,11.3-20.7c12.6,3.9,24.6-0.7,33.2-12.7C162.4,36,152.1,30.1,147.8,36.3z"/>
			</g>
		</g>
	</g>
</g>
<g id="prof.psd_1_">

		<image style="overflow:visible;" width="511" height="351" id="Layer_0_2_" xlink:href="A5A3D23E2FF53C7E.png"  transform="matrix(0.144 0 0 0.144 -1158.8706 775.7662)">
	</image>
</g>
<g>
	<g>
		<g>
			<g>
				<g>
					<path class="st1" d="M-873.7,791.4v-9.1v-1c0-5.2-4.6-9.4-10.3-9.6l0,0v2.3l0,0v2.3v0v1.3c0,3.4-2.7,6.1-6.1,6.1
						s-6.1-2.7-6.1-6.1v-1.3V774v-2.3h-17.3v2.3v2.3v1.3c0,3.4-2.7,6.1-6.1,6.1c-3.4,0-6.1-2.7-6.1-6.1v-1.3v0v-2.3l0,0v-2.3l0,0
						c-5.6,0.2-10.1,4.4-10.1,9.6v1v9.1v31.9c0,5.8,4.7,10.6,10.6,10.6h41c5.8,0,10.6-4.7,10.6-10.6V791.4L-873.7,791.4z
						 M-878.3,823.3c0,3.3-2.7,6-6,6h-41c-3.3,0-6-2.7-6-6v-31.9h52.9V823.3z"/>
					<path class="st1" d="M-922.3,770v1.7v2.3v2.3v1.3c0,1.5,1.2,2.7,2.7,2.7c1.5,0,2.7-1.2,2.7-2.7v-1.3V774v-2.3V770
						c0-1.5-1.2-2.7-2.7-2.7C-921.1,767.3-922.3,768.5-922.3,770z"/>
					<path class="st1" d="M-890,767.3c-1.5,0-2.7,1.2-2.7,2.7v1.7v2.3v2.3v1.3c0,1.5,1.2,2.7,2.7,2.7s2.7-1.2,2.7-2.7v-1.3V774v-2.3
						V770C-887.4,768.5-888.6,767.3-890,767.3z"/>
					<path class="st1" d="M-912.4,823.2c3,0,5.3-0.8,6.8-2.5c1.5-1.7,2.3-3.6,2.3-5.8c0-2.1-0.7-3.8-2-5c-0.4-0.3-0.7-0.6-1-0.8
						c-0.5-0.4-0.6-0.6-0.1-1c0.3-0.2,0.5-0.5,0.8-0.8c0.9-1.1,1.4-2.4,1.4-3.9c0-2.2-0.8-3.9-2.3-5.2c-1.5-1.3-3.5-1.9-6-1.9
						c-1.3,0-2.5,0.2-3.4,0.5c-0.9,0.3-1.7,0.8-2.4,1.4c-0.9,0.9-1.6,1.8-2,2.8c-0.3,0.8-0.5,1.7-0.6,2.5c-0.1,0.6,0.4,1.1,1.1,1.1
						h2.5c0.6,0,1.1-0.5,1.2-1.1c0.1-0.8,0.4-1.4,0.8-1.9c0.6-0.8,1.5-1.2,2.7-1.2c1.1,0,1.9,0.3,2.5,0.9s0.9,1.4,0.9,2.4
						c0,1.5-0.6,2.6-1.7,3.1c-0.5,0.2-1.3,0.4-2.3,0.4c-0.6,0-1.1,0.6-1.1,1.2v1.4c0,0.6,0.5,1.1,1.2,1.2c1.1,0.1,2,0.2,2.6,0.5
						c1.4,0.6,2.1,1.7,2.1,3.4c0,1.3-0.4,2.3-1.1,3c-0.7,0.7-1.6,1-2.6,1c-1.6,0-2.8-0.6-3.4-1.9c-0.2-0.4-0.3-0.9-0.4-1.4
						c-0.1-0.6-0.6-1.1-1.2-1.1h-2.7c-0.6,0-1.1,0.5-1.1,1.1c0.2,1.6,0.6,2.9,1.2,3.9C-918.7,821.9-916.1,823.2-912.4,823.2z"/>
					<path class="st1" d="M-898.1,804.5h3.8c0.6,0,1.1,0.5,1.1,1.2v15.7c0,0.6,0.5,1.1,1.1,1.1h3c0.6,0,1.1-0.5,1.1-1.1v-23.8
						c0-0.6-0.5-1.1-1.1-1.1h-2c-0.6,0-1.2,0.2-1.2,0.5c0,0.1-0.1,0.3-0.1,0.5c-0.2,0.8-0.6,1.4-1,1.9c-0.6,0.7-1.5,1.1-2.5,1.4
						c-0.5,0.1-1.2,0.2-2.2,0.3c-0.6,0-1.1,0.6-1.1,1.2v1.2C-899.3,804-898.8,804.5-898.1,804.5z"/>
				</g>
			</g>
		</g>
	</g>
	<g>
		<text transform="matrix(1 0 0 1 -950.4209 867.2048)" class="st1" style="font-family:'MyriadPro-Regular'; font-size:25px;">Calendar</text>
	</g>
</g>
<g>
	<g>
		<path id="trophy-7-icon_1_" class="st1" d="M-696.6,819.7c1.7-8,13.5-14.2,13.5-38.2H-717c0,24,11.9,30.2,13.5,38.2H-696.6z
			 M-706.8,793.1l4.7-0.6l2.1-4.3l2.1,4.3l4.7,0.6l-3.4,3.3l0.8,4.7l-4.2-2.2l-4.2,2.2l0.8-4.7L-706.8,793.1z M-716.5,802.6
			c0.7,1.8,1.5,3.4,2.3,4.8c-9-3.8-14.4-12.8-15.2-22.3h9.2c0.1,1.1,0.1,2.1,0.2,3.2h-5.7C-724.7,792.8-722.4,798.7-716.5,802.6z
			 M-689.6,830.5v3.4h-20.9v-3.4c5.4,0,6.8-4.5,7.1-7.6c0,0,6.5,0,6.7,0C-696.4,825.9-695.1,830.5-689.6,830.5z M-670.6,785.1
			c-0.9,9.5-6.2,18.5-15.2,22.3c0.8-1.5,1.6-3.1,2.3-4.8c5.8-3.8,8.2-9.8,9.1-14.3h-5.7c0.1-1,0.2-2.1,0.2-3.2H-670.6z"/>
	</g>
	<g>
		<text transform="matrix(1 0 0 1 -728.8793 867.2048)" class="st1" style="font-family:'MyriadPro-Regular'; font-size:25px;">Goals</text>
	</g>
</g>
<g>
	<g>
		<g>
			<g>
				<g>
					<path class="st2" d="M1784.1,194.6c-0.1,0-0.2,0-0.3,0c-0.7-0.1-1.3-0.2-2-0.5c-4-1-8-2.8-12.2-4.7l-1.9-0.9
						c-4.8-2.2-9.8-4.4-15.3-5.7c-2.9-0.7-5.8-1.1-8.7-1.1c-2.3,0-4.7,0.2-6.8,0.6c-0.8,0.1-1.5-0.3-1.7-1c-0.2-0.7,0.1-1.5,0.8-1.9
						c5-2.4,10.1-4.9,15.1-7.4l3.8-1.9c-1.2-3-3.7-9.2-4.8-11.9l-22.3-2.7c-4.6-0.5-7.8-4.6-7.4-9.4c0.6-4.7,4.8-8,9.3-7.5l27.4,3.6
						c3.3,0.5,5.4,2.2,6.8,5.4c2.6,6.1,16.3,34.2,21.6,44.8c0.3,0.5,0.2,1.1-0.1,1.6C1785.1,194.4,1784.6,194.6,1784.1,194.6z
						 M1744.7,178.7c2.8,0.1,5.7,0.5,8.6,1.2c5.7,1.4,10.8,3.7,15.8,5.9l1.9,0.9c3.5,1.6,6.9,3.1,10.3,4.1
						c-6-12.2-17.8-36.3-20.2-42c-1.1-2.5-2.5-3.2-4.4-3.5l-27.3-3.6c-2.9-0.4-5.5,1.8-5.9,4.7c-0.2,3,1.8,5.7,4.7,6l0,0l23.2,3
						c0.6,0.1,1,0.4,1.2,1c0.8,2.1,4.9,12.2,5.7,14c0.3,0.8,0,1.6-0.7,2l-5.1,2.4C1749.9,176.1,1747.3,177.4,1744.7,178.7z"/>
				</g>
				<g>
					<path class="st2" d="M1716,202.5c-0.3,0-0.6-0.1-0.9-0.3c-0.7-0.5-0.9-1.5-0.4-2.2c1.9-2.7,4.5-5.3,7.6-7.5
						c2.7-2,6-3.7,9.4-4.7c4-1.3,7.9-1.9,12-1.9c3.1,0,6.1,0.4,8.7,1.1c5.3,1.4,10.1,3.5,14.8,5.6l1.2,0.5c4.5,2.1,8.9,4.1,13.4,5.3
						c4.3,1.1,9,1.3,13,0.4c4.4-0.9,8.2-3.1,10.6-5.9c0.2-0.3,0.4-0.5,0.6-0.8c0.1-0.2,0.3-0.4,0.4-0.6c0.4-0.7,1.4-1,2.1-0.5
						c0.7,0.4,1,1.4,0.5,2.1c-0.2,0.3-0.4,0.6-0.6,0.9c-0.1,0.2-0.3,0.4-0.4,0.6c0,0.1-0.1,0.1-0.1,0.2c-2.9,3.4-7.3,5.9-12.4,7
						c-4.5,0.9-9.6,0.8-14.4-0.4c-4.9-1.2-9.4-3.3-14-5.5l-1.2-0.5c-4.5-2-9.2-4.2-14.3-5.5c-2.3-0.6-5-1-7.9-1
						c-3.8,0-7.4,0.6-11.1,1.8c-3.1,1-6,2.5-8.5,4.3c-2.8,1.9-5.2,4.3-6.9,6.7C1717,202.3,1716.5,202.5,1716,202.5z"/>
				</g>
				<g>
					<path class="st2" d="M1794.3,184.3c-8.9,0-16.2-7.3-16.2-16.2c0-8.9,7.3-16.2,16.2-16.2s16.2,7.3,16.2,16.2
						C1810.5,177,1803.2,184.3,1794.3,184.3z M1794.3,155.1c-7.2,0-13.1,5.9-13.1,13.1s5.9,13.1,13.1,13.1s13.1-5.9,13.1-13.1
						S1801.5,155.1,1794.3,155.1z"/>
				</g>
			</g>
		</g>
		<ellipse class="st2" cx="1794.5" cy="168.3" rx="14.1" ry="13.7"/>
		<polygon class="st2" points="1727,140.5 1723.5,143.5 1721.9,146.6 1723.5,150.9 1726.1,153.6 1751,156.6 1756.2,169.8
			1753.1,172.6 1741.5,178.9 1760.1,183.2 1781.9,192.2 1782.9,190.8 1762.8,150 1760.4,144.9 		"/>
	</g>
</g>
<g>
	<g>
		<path class="st2" d="M1798.6,434.8c-2.3,0-4.6,0.3-6.8,1l-0.3,0.1l-7.3-17h9.9c2.3,0,4.1,1.8,4.1,4.1c0,0.7-0.5,1.4-1.2,1.6
			l-2.7,0.8l1.3,4.3l2.7-0.8c2.6-0.8,4.4-3.1,4.4-5.9c0-4.7-3.9-8.6-8.6-8.6h-16.7l5,11.6h-34.5l-3.2-5.4h4.1v-4.5h-15.4v4.5h6.2
			l4.3,7.2l-4.5,8.5l-0.3-0.1c-2.6-0.9-5.3-1.4-8-1.4c-13.1,0-23.8,10.7-23.8,23.8c0,13.1,10.7,23.8,23.8,23.8
			c11.7,0,21.8-8.8,23.5-20.4l0-0.3h2.7l0.1,0.2c1.3,3.2,4.3,5.2,7.7,5.2c4.6,0,8.3-3.7,8.3-8.3c0-1.6-0.5-3.1-1.3-4.5l-0.1-0.2
			l12.6-23.5l3,7l-0.2,0.1c-7.6,4.2-12.3,12.2-12.3,20.8c0,13.1,10.7,23.8,23.8,23.8c13.1,0,23.8-10.7,23.8-23.8
			C1822.4,445.5,1811.7,434.8,1798.6,434.8z M1750,462.1c-1.7,9.2-9.6,15.8-19,15.8c-10.6,0-19.3-8.7-19.3-19.3
			c0-10.6,8.7-19.3,19.3-19.3c2,0,3.9,0.3,5.7,0.9l0.4,0.1l-6.5,12.1l-0.2,0c-3.3,0.3-5.8,3-5.8,6.3c0,1,0.3,2.1,0.8,3.1l0,0
			c1.1,2,3.3,3.3,5.6,3.3s4.4-1.3,5.6-3.3l0.1-0.2h13.4L1750,462.1z M1733,458.8c0,1.1-0.9,1.9-1.9,1.9s-1.9-0.9-1.9-1.9
			c0-1.1,0.9-1.9,1.9-1.9S1733,457.7,1733,458.8z M1737.2,457.2l-0.1-0.2c-0.3-1.2-1-2.2-1.9-3l-0.2-0.2l6.2-11.6l0.3,0.2
			c5,3.3,8.2,8.5,8.8,14.5l0,0.3L1737.2,457.2L1737.2,457.2z M1758.8,453.3c-0.9,1.1-1.6,2.3-1.9,3.7l-0.1,0.2h-2.1l0-0.3
			c-0.5-7.6-4.7-14.5-11.2-18.5l-0.2-0.2l3.2-6l12.5,20.8L1758.8,453.3z M1765,462.6c-2.1,0-3.8-1.7-3.8-3.8c0-2.1,1.7-3.8,3.8-3.8
			s3.8,1.7,3.8,3.8C1768.8,460.9,1767.1,462.6,1765,462.6z M1768.4,451.2l-0.3-0.1c-1.6-0.7-3.3-0.8-5.1-0.4l-0.2,0.1l-12.2-20.3
			h28.8L1768.4,451.2z M1798.6,477.9c-10.6,0-19.3-8.7-19.3-19.3c0-6.8,3.7-13.1,9.5-16.6l0.3-0.2l5.2,12.2l-0.2,0.2
			c-1.3,1.2-2,2.9-2,4.6c0,3.5,2.9,6.4,6.4,6.4c3.5,0,6.4-2.9,6.4-6.4c0-3.4-2.8-6.3-6.2-6.4l-0.2,0l-5.3-12.3l0.4-0.1
			c1.7-0.4,3.3-0.7,5-0.7c10.6,0,19.3,8.7,19.3,19.3C1817.9,469.2,1809.3,477.9,1798.6,477.9z M1796.7,458.8c0-1.1,0.9-1.9,1.9-1.9
			c1.1,0,1.9,0.9,1.9,1.9c0,1.1-0.9,1.9-1.9,1.9C1797.6,460.7,1796.7,459.8,1796.7,458.8z"/>
	</g>
</g>
<g>
	<circle class="st3" cx="505.8" cy="353.7" r="115.4"/>
	<path class="st2" d="M598.8,285.4c14.1,19.1,22.4,42.8,22.4,68.4c0,63.7-51.7,115.4-115.4,115.4s-115.4-51.7-115.4-115.4
		c0-23.9,7.3-46.1,19.7-64.5"/>
</g>
<g>
	<circle class="st3" cx="847.9" cy="353.7" r="115.4"/>
	<path class="st2" d="M947,413c-20.2,33.6-57,56.1-99.1,56.1c-42.1,0-78.9-22.5-99.1-56.1"/>
</g>
<g>
	<circle class="st3" cx="1188.8" cy="354.4" r="115.4"/>
	<path class="st2" d="M1298.3,317.8c3.8,11.5,5.9,23.8,5.9,36.6c0,63.7-51.7,115.4-115.4,115.4s-115.4-51.7-115.4-115.4
		c0-12,1.8-23.5,5.2-34.3"/>
</g>
</svg>
