<?xml version="1.0" encoding="utf-8"?>
<!-- Generator: Adobe Illustrator 19.2.1, SVG Export Plug-In . SVG Version: 6.00 Build 0)  -->
<svg version="1.1" id="Layer_1" xmlns="http://www.w3.org/2000/svg" xmlns:xlink="http://www.w3.org/1999/xlink" x="0px" y="0px"
	 viewBox="0 0 104.9 73.3" style="enable-background:new 0 0 104.9 73.3;" xml:space="preserve">
<style type="text/css">
	.st0{fill:#FE5F55;}
	.st1{fill:none;stroke:#FE5F55;stroke-width:1.2774;stroke-miterlimit:10;}
</style>
<g>
	<g>
		<g>
			<g>
				<g>
					<path class="st0" d="M74,59.9c-0.1,0-0.2,0-0.3,0c-0.7-0.1-1.3-0.2-2-0.5c-4-1-8-2.8-12.2-4.7l-1.9-0.9
						c-4.8-2.2-9.8-4.4-15.3-5.7c-2.9-0.7-5.8-1.1-8.7-1.1c-2.3,0-4.7,0.2-6.8,0.6c-0.8,0.1-1.5-0.3-1.7-1s0.1-1.5,0.8-1.9
						c5-2.4,10.1-4.9,15.1-7.4l3.8-1.9c-1.2-3-3.7-9.2-4.8-11.9l-22.3-2.7c-4.6-0.5-7.8-4.6-7.4-9.4c0.6-4.7,4.8-8,9.3-7.5L47,7.5
						c3.3,0.5,5.4,2.2,6.8,5.4c2.6,6.1,16.3,34.2,21.6,44.8c0.3,0.5,0.2,1.1-0.1,1.6C75,59.7,74.5,59.9,74,59.9z M34.6,44
						c2.8,0.1,5.7,0.5,8.6,1.2c5.7,1.4,10.8,3.7,15.8,5.9l1.9,0.9c3.5,1.6,6.9,3.1,10.3,4.1c-6-12.2-17.8-36.3-20.2-42
						c-1.1-2.5-2.5-3.2-4.4-3.5L19.3,7c-2.9-0.4-5.5,1.8-5.9,4.7c-0.2,3,1.8,5.7,4.7,6l0,0l23.2,3c0.6,0.1,1,0.4,1.2,1
						c0.8,2.1,4.9,12.2,5.7,14c0.3,0.8,0,1.6-0.7,2l-5.1,2.4C39.8,41.4,37.2,42.7,34.6,44z"/>
				</g>
				<g>
					<path class="st0" d="M5.9,67.8c-0.3,0-0.6-0.1-0.9-0.3C4.3,67,4.1,66,4.6,65.3c1.9-2.7,4.5-5.3,7.6-7.5c2.7-2,6-3.7,9.4-4.7
						c4-1.3,7.9-1.9,12-1.9c3.1,0,6.1,0.4,8.7,1.1c5.3,1.4,10.1,3.5,14.8,5.6l1.2,0.5c4.5,2.1,8.9,4.1,13.4,5.3
						c4.3,1.1,9,1.3,13,0.4c4.4-0.9,8.2-3.1,10.6-5.9c0.2-0.3,0.4-0.5,0.6-0.8c0.1-0.2,0.3-0.4,0.4-0.6c0.4-0.7,1.4-1,2.1-0.5
						c0.7,0.4,1,1.4,0.5,2.1c-0.2,0.3-0.4,0.6-0.6,0.9c-0.1,0.2-0.3,0.4-0.4,0.6c0,0.1-0.1,0.1-0.1,0.2c-2.9,3.4-7.3,5.9-12.4,7
						c-4.5,0.9-9.6,0.8-14.4-0.4c-4.9-1.2-9.4-3.3-14-5.5l-1.2-0.5c-4.5-2-9.2-4.2-14.3-5.5c-2.3-0.6-5-1-7.9-1
						c-3.8,0-7.4,0.6-11.1,1.8c-3.1,1-6,2.5-8.5,4.3c-2.8,1.9-5.2,4.3-6.9,6.7C6.9,67.6,6.4,67.8,5.9,67.8z"/>
				</g>
				<g>
					<path class="st0" d="M84.2,49.6c-8.9,0-16.2-7.3-16.2-16.2s7.3-16.2,16.2-16.2s16.2,7.3,16.2,16.2S93.1,49.6,84.2,49.6z
						 M84.2,20.4c-7.2,0-13.1,5.9-13.1,13.1S77,46.6,84.2,46.6s13.1-5.9,13.1-13.1S91.4,20.4,84.2,20.4z"/>
				</g>
			</g>
		</g>
		<ellipse class="st0" cx="84.4" cy="33.7" rx="14.1" ry="13.7"/>
		<polygon class="st0" points="16.9,5.8 13.4,8.8 11.8,12 13.4,16.2 16,19 40.9,22 46.1,35.1 43,38 31.4,44.2 50,48.6 71.8,57.6 
			72.8,56.1 52.6,15.3 50.3,10.2 		"/>
	</g>
</g>
<g>
	<g>
		<path class="st0" d="M729.5,321.2c-2.3,0-4.6,0.3-6.8,1l-0.3,0.1l-7.3-17h9.9c2.3,0,4.1,1.8,4.1,4.1c0,0.7-0.5,1.4-1.2,1.6
			l-2.7,0.8l1.3,4.3l2.7-0.8c2.6-0.8,4.4-3.1,4.4-5.9c0-4.7-3.9-8.6-8.6-8.6h-16.7l5,11.6h-34.5l-3.2-5.4h4.1v-4.5h-15.4v4.5h6.2
			l4.3,7.2l-4.5,8.5l-0.3-0.1c-2.6-0.9-5.3-1.4-8-1.4c-13.1,0-23.8,10.7-23.8,23.8c0,13.1,10.7,23.8,23.8,23.8
			c11.7,0,21.8-8.8,23.5-20.4l0-0.3h2.7l0.1,0.2c1.3,3.2,4.3,5.2,7.7,5.2c4.6,0,8.3-3.7,8.3-8.3c0-1.6-0.5-3.1-1.3-4.5l-0.1-0.2
			l12.6-23.5l3,7l-0.2,0.1c-7.6,4.2-12.3,12.2-12.3,20.8c0,13.1,10.7,23.8,23.8,23.8s23.8-10.7,23.8-23.8
			C753.3,331.8,742.6,321.2,729.5,321.2z M680.9,348.4c-1.7,9.2-9.6,15.8-19,15.8c-10.6,0-19.3-8.7-19.3-19.3
			c0-10.6,8.7-19.3,19.3-19.3c2,0,3.9,0.3,5.7,0.9l0.4,0.1l-6.5,12.1l-0.2,0c-3.3,0.3-5.8,3-5.8,6.3c0,1,0.3,2.1,0.8,3.1l0,0
			c1.1,2,3.3,3.3,5.6,3.3c2.3,0,4.4-1.3,5.6-3.3l0.1-0.2H681L680.9,348.4z M663.8,345.1c0,1.1-0.9,1.9-1.9,1.9
			c-1.1,0-1.9-0.9-1.9-1.9c0-1.1,0.9-1.9,1.9-1.9C663,343.2,663.8,344.1,663.8,345.1z M668.1,343.6l-0.1-0.2c-0.3-1.2-1-2.2-1.9-3
			l-0.2-0.2l6.2-11.6l0.3,0.2c5,3.3,8.2,8.5,8.8,14.5l0,0.3L668.1,343.6L668.1,343.6z M689.7,339.6c-0.9,1.1-1.6,2.3-1.9,3.7
			l-0.1,0.2h-2.1l0-0.3c-0.5-7.6-4.7-14.5-11.2-18.5l-0.2-0.2l3.2-6l12.5,20.8L689.7,339.6z M695.9,349c-2.1,0-3.8-1.7-3.8-3.8
			s1.7-3.8,3.8-3.8c2.1,0,3.8,1.7,3.8,3.8S698,349,695.9,349z M699.3,337.6l-0.3-0.1c-1.6-0.7-3.3-0.8-5.1-0.4l-0.2,0.1l-12.2-20.3
			h28.8L699.3,337.6z M729.5,364.2c-10.6,0-19.3-8.7-19.3-19.3c0-6.8,3.7-13.1,9.5-16.6l0.3-0.2l5.2,12.2l-0.2,0.2
			c-1.3,1.2-2,2.9-2,4.6c0,3.5,2.9,6.4,6.4,6.4s6.4-2.9,6.4-6.4c0-3.4-2.8-6.3-6.2-6.4l-0.2,0l-5.3-12.3l0.4-0.1
			c1.7-0.4,3.3-0.7,5-0.7c10.6,0,19.3,8.7,19.3,19.3C748.8,355.6,740.2,364.2,729.5,364.2z M727.6,345.1c0-1.1,0.9-1.9,1.9-1.9
			c1.1,0,1.9,0.9,1.9,1.9c0,1.1-0.9,1.9-1.9,1.9C728.5,347,727.6,346.2,727.6,345.1z"/>
	</g>
</g>
<g>
	<circle class="st1" cx="-563.3" cy="240.1" r="115.4"/>
	<path class="st0" d="M-470.3,171.7c14.1,19.1,22.4,42.8,22.4,68.4c0,63.7-51.7,115.4-115.4,115.4s-115.4-51.7-115.4-115.4
		c0-23.9,7.3-46.1,19.7-64.5"/>
</g>
<g>
	<circle class="st1" cx="-221.2" cy="240.1" r="115.4"/>
	<path class="st0" d="M-122.1,299.3c-20.2,33.6-57,56.1-99.1,56.1c-42.1,0-78.9-22.5-99.1-56.1"/>
</g>
<g>
	<circle class="st1" cx="119.7" cy="240.7" r="115.4"/>
	<path class="st0" d="M229.1,204.1c3.8,11.5,5.9,23.8,5.9,36.6c0,63.7-51.7,115.4-115.4,115.4S4.2,304.5,4.2,240.7
		c0-12,1.8-23.5,5.2-34.3"/>
</g>
</svg>
